#!OML:ASF F:\VICON\USERDATA\INSTALL\rory3\rory3.ASF
:FULLY-SPECIFIED
:DEGREES
692
root -0.167584 18.2128 2.6788 -21.9453 85.4033 338.757
lowerback 9.58448 0.75422 -0.832868
upperback -0.019769 0.996318 1.22327
thorax -5.43758 0.537458 1.60466
lowerneck -17.7684 -7.74983 -12.8285
upperneck 31.9499 -9.96073 10.0186
head 15.4338 -4.22906 4.61918
rclavicle -7.69048e-015 1.98785e-015
rhumerus -34.7369 -7.45262 -84.804
rradius 33.5513
rwrist 6.0776
rhand -14.3494 9.63557
rfingers 7.12502
rthumb 11.7922 -20.0125
lclavicle -7.69048e-015 1.98785e-015
lhumerus -34.6227 0.861442 87.8247
lradius 34.5054
lwrist -6.13948
lhand -16.4749 25.7095
lfingers 7.12502
lthumb 9.74199 55.4642
rfemur -4.77198 1.79658 22.6492
rtibia 19.5933
rfoot -9.87999 -3.52562
rtoes -1.2347
lfemur -3.48321 -3.26586 -21.7191
ltibia 15.2843
lfoot -6.05248 -1.57137
ltoes 0.396241
693
root -0.183699 18.2142 2.65121 -19.3695 84.8514 341.083
lowerback 9.48611 0.768908 -0.828141
upperback -0.0582456 1.01581 1.21973
thorax -5.4231 0.546672 1.59634
lowerneck -17.8084 -7.82581 -12.8492
upperneck 32.0063 -10.0643 9.9966
head 15.4869 -4.27864 4.59317
rclavicle 2.98798e-015 1.11319e-014
rhumerus -34.5928 -7.31959 -84.8866
rradius 33.7211
rwrist 6.03371
rhand -14.3829 9.64989
rfingers 7.12502
rthumb 11.7599 -20
lclavicle 2.98798e-015 1.11319e-014
lhumerus -34.7046 0.546227 88.0839
lradius 34.6901
lwrist -5.62404
lhand -16.4304 25.6186
lfingers 7.12502
lthumb 9.78491 55.3713
rfemur -5.17367 1.76662 22.5122
rtibia 19.5492
rfoot -9.95279 -3.04339
rtoes -1.24878
lfemur -3.9294 -3.04764 -21.7993
ltibia 15.5685
lfoot -6.09477 -1.14597
ltoes 0.445497
694
root -0.195537 18.2155 2.62655 -17.0868 84.3165 343.213
lowerback 9.4403 0.77534 -0.879447
upperback -0.0653928 1.0179 1.21029
thorax -5.4056 0.548704 1.61555
lowerneck -17.7907 -7.90743 -12.9522
upperneck 31.9854 -10.1924 10.0889
head 15.5087 -4.3361 4.62385
rclavicle 3.98812e-015 -3.27995e-015
rhumerus -34.4534 -7.02499 -85.038
rradius 33.9055
rwrist 5.71355
rhand -14.3314 9.72803
rfingers 7.12502
rthumb 11.8096 -19.919
lclavicle 3.98812e-015 -3.27995e-015
lhumerus -34.8026 0.165428 88.3584
lradius 34.8685
lwrist -4.89444
lhand -15.7875 25.2373
lfingers 7.12502
lthumb 10.4051 54.9598
rfemur -5.45354 1.80985 22.3439
rtibia 19.5485
rfoot -10.0999 -2.65206
rtoes -1.06774
lfemur -4.18579 -2.94839 -21.913
ltibia 15.7381
lfoot -6.06045 -0.645107
ltoes 0.239818
695
root -0.206491 18.2129 2.60261 -15.4412 83.8006 344.73
lowerback 9.57156 0.733668 -0.923053
upperback -0.184252 0.955727 1.19745
thorax -5.60272 0.520366 1.634
lowerneck -17.7004 -7.96583 -13.108
upperneck 32.0279 -10.3099 10.2722
head 15.554 -4.38402 4.71141
rclavicle -4.75841e-015 -4.57205e-015
rhumerus -34.4574 -6.81553 -85.2067
rradius 34.0201
rwrist 5.66551
rhand -14.3428 9.84982
rfingers 7.12502
rthumb 11.7985 -19.7978
lclavicle -4.75841e-015 -4.57205e-015
lhumerus -35.0969 -0.184368 88.6182
lradius 35.0313
lwrist -3.74258
lhand -15.1041 24.6271
lfingers 7.12502
lthumb 11.0643 54.3155
rfemur -5.68776 1.6824 22.2074
rtibia 19.5244
rfoot -10.2084 -2.24826
rtoes -1.96476
lfemur -4.3601 -2.8802 -22.0042
ltibia 15.8015
lfoot -6.03675 -0.173569
ltoes 0.576839
696
root -0.21721 18.2126 2.57782 -14.7311 83.2857 345.33
lowerback 9.68207 0.683568 -0.80154
upperback -0.250918 0.898595 1.13846
thorax -5.73011 0.488591 1.51092
lowerneck -17.6169 -8.03549 -13.1808
upperneck 31.9978 -10.4862 10.5006
head 15.5735 -4.44123 4.78866
rclavicle -2.31336e-014 -7.95139e-016
rhumerus -34.4499 -6.9325 -85.3833
rradius 34.2243
rwrist 5.8462
rhand -14.4266 9.79967
rfingers 7.12502
rthumb 11.7177 -19.8526
lclavicle -2.31336e-014 -7.95139e-016
lhumerus -35.2117 -0.34678 88.6309
lradius 35.0187
lwrist -3.32451
lhand -14.5761 23.9851
lfingers 7.12502
lthumb 11.5735 53.6455
rfemur -5.82147 1.58379 22.1727
rtibia 19.3928
rfoot -10.3065 -1.9714
rtoes -3.47779
lfemur -4.5129 -2.73086 -22.0108
ltibia 15.8552
lfoot -6.05809 0.226917
ltoes 1.4878
697
root -0.228094 18.22 2.5524 -13.5582 82.7791 346.414
lowerback 9.72892 0.628263 -0.712829
upperback -0.238992 0.828463 1.0342
thorax -5.73863 0.449707 1.36169
lowerneck -17.6817 -8.10345 -13.1438
upperneck 32.0112 -10.6537 10.6419
head 15.6321 -4.48871 4.80924
rclavicle 2.28556e-014 -1.26725e-015
rhumerus -34.3342 -6.80525 -85.6929
rradius 34.5175
rwrist 5.54139
rhand -14.536 9.72961
rfingers 7.12502
rthumb 11.6122 -19.9286
lclavicle 2.28556e-014 -1.26725e-015
lhumerus -35.1968 -0.381589 88.5337
lradius 34.9787
lwrist -3.44262
lhand -14.8302 24.081
lfingers 7.12502
lthumb 11.3285 53.755
rfemur -5.87559 1.59126 22.0468
rtibia 19.1907
rfoot -10.5446 -1.69569
rtoes -4.06855
lfemur -4.65309 -2.72898 -22.1016
ltibia 15.9352
lfoot -6.0599 0.755708
ltoes 2.33773
698
root -0.238915 18.2378 2.52456 -12.0518 82.2316 347.826
lowerback 9.77417 0.570898 -0.685826
upperback -0.235671 0.747986 0.922294
thorax -5.75624 0.407447 1.24086
lowerneck -17.6905 -8.15012 -13.0438
upperneck 32.0026 -10.7656 10.6421
head 15.641 -4.52581 4.76717
rclavicle 8.0368e-016 -2.82336e-015
rhumerus -34.201 -6.6013 -86.0316
rradius 34.7744
rwrist 5.20656
rhand -14.4763 9.61334
rfingers 7.12502
rthumb 11.6698 -20.0417
lclavicle 8.0368e-016 -2.82336e-015
lhumerus -35.2554 -0.492125 88.5554
lradius 35.0509
lwrist -3.29171
lhand -15.6016 24.9798
lfingers 7.12502
lthumb 10.5845 54.6933
rfemur -6.01885 1.66557 21.8228
rtibia 19.1374
rfoot -10.9101 -1.29659
rtoes -3.55955
lfemur -4.67588 -3.18942 -22.2151
ltibia 15.8872
lfoot -5.96239 1.52919
ltoes 6.57385
